<svg width="12" height="13" viewBox="0 0 12 13" fill="none" xmlns="http://www.w3.org/2000/svg">
<path fill-rule="evenodd" clip-rule="evenodd" d="M6 0C6.22729 0 6.44527 0.085593 6.60598 0.237949C6.7667 0.390306 6.85699 0.596945 6.85699 0.812409V10.225L10.5352 6.7365C10.6149 6.66096 10.7095 6.60105 10.8136 6.56017C10.9177 6.51929 11.0292 6.49825 11.1419 6.49825C11.2546 6.49825 11.3662 6.51929 11.4703 6.56017C11.5744 6.60105 11.669 6.66096 11.7487 6.7365C11.8284 6.81203 11.8916 6.9017 11.9347 7.00039C11.9778 7.09909 12 7.20486 12 7.31168C12 7.41851 11.9778 7.52428 11.9347 7.62297C11.8916 7.72166 11.8284 7.81133 11.7487 7.88687L6.60675 12.7613C6.52714 12.837 6.43257 12.897 6.32846 12.938C6.22434 12.9789 6.11272 13 6 13C5.88728 13 5.77566 12.9789 5.67154 12.938C5.56743 12.897 5.47286 12.837 5.39325 12.7613L0.251323 7.88687C0.171644 7.81133 0.108439 7.72166 0.0653168 7.62297C0.0221947 7.52428 0 7.41851 0 7.31168C0 7.20486 0.0221947 7.09909 0.0653168 7.00039C0.108439 6.9017 0.171644 6.81203 0.251323 6.7365C0.412243 6.58395 0.630497 6.49825 0.858071 6.49825C0.970755 6.49825 1.08233 6.51929 1.18644 6.56017C1.29055 6.60105 1.38514 6.66096 1.46482 6.7365L5.14301 10.225V0.812409C5.14301 0.596945 5.2333 0.390306 5.39402 0.237949C5.55473 0.085593 5.77271 0 6 0Z" fill="black"/>
</svg>
