<svg width="20" height="20" viewBox="0 0 20 20" fill="none" xmlns="http://www.w3.org/2000/svg">
<path fill-rule="evenodd" clip-rule="evenodd" d="M2.35676 0.637742C2.57548 0.419343 2.8381 0.249922 3.12724 0.140707C3.41637 0.0314914 3.72542 -0.0150244 4.03389 0.00424171C4.34236 0.0235079 4.64321 0.108116 4.91651 0.25246C5.18981 0.396803 5.42932 0.597585 5.61916 0.841502L7.86284 3.72413C8.27408 4.25291 8.41907 4.94169 8.25658 5.59172L7.57285 8.32934C7.5375 8.47114 7.53941 8.61966 7.5784 8.7605C7.61738 8.90134 7.69211 9.0297 7.79534 9.13313L10.8665 12.2045C10.97 12.308 11.0986 12.3828 11.2397 12.4218C11.3807 12.4608 11.5295 12.4626 11.6715 12.427L14.4076 11.7433C14.7284 11.663 15.0632 11.6568 15.3867 11.725C15.7102 11.7933 16.014 11.9341 16.2751 12.137L19.1575 14.3796C20.1937 15.1859 20.2887 16.7172 19.3612 17.6435L18.0688 18.9361C17.1438 19.8611 15.7613 20.2674 14.4726 19.8136C11.1742 18.653 8.17942 16.7645 5.71041 14.2884C3.2346 11.8195 1.34631 8.82494 0.185583 5.52672C-0.266903 4.23916 0.139334 2.85534 1.06431 1.9303L2.35676 0.637742ZM15.6251 1.24902C15.7909 1.24902 15.9498 1.31487 16.067 1.43209C16.1842 1.5493 16.2501 1.70828 16.2501 1.87405V3.74913H18.125C18.2908 3.74913 18.4497 3.81499 18.5669 3.9322C18.6842 4.04942 18.75 4.2084 18.75 4.37416C18.75 4.53993 18.6842 4.69891 18.5669 4.81613C18.4497 4.93334 18.2908 4.99919 18.125 4.99919H16.2501V6.87428C16.2501 7.04005 16.1842 7.19902 16.067 7.31624C15.9498 7.43346 15.7909 7.49931 15.6251 7.49931C15.4593 7.49931 15.3004 7.43346 15.1832 7.31624C15.066 7.19902 15.0001 7.04005 15.0001 6.87428V4.99919H13.1252C12.9594 4.99919 12.8005 4.93334 12.6832 4.81613C12.566 4.69891 12.5002 4.53993 12.5002 4.37416C12.5002 4.2084 12.566 4.04942 12.6832 3.9322C12.8005 3.81499 12.9594 3.74913 13.1252 3.74913H15.0001V1.87405C15.0001 1.70828 15.066 1.5493 15.1832 1.43209C15.3004 1.31487 15.4593 1.24902 15.6251 1.24902Z" fill="black"/>
</svg>
