<svg width="24" height="25" viewBox="0 0 24 25" fill="none" xmlns="http://www.w3.org/2000/svg">
<path d="M11.3683 0.00363823C9.33905 0.02786 4.97625 0.357588 2.53605 2.57114C0.72091 4.34949 0.0871537 6.97872 0.012873 10.2299C-0.0487642 13.4694 -0.123045 19.5529 5.80756 21.2094V23.7323C5.80756 23.7323 5.77042 24.7418 6.44527 24.9489C7.27658 25.2091 7.74992 24.4324 8.54014 23.598L10.0139 21.9501C14.0717 22.2837 17.1796 21.5149 17.5376 21.4008C18.361 21.1406 22.9988 20.5546 23.7566 14.4703C24.5342 8.18668 23.3781 4.2276 21.2911 2.43675H21.2785C20.6487 1.86324 18.1176 0.0395802 12.4628 0.0192652C12.4628 0.0192652 12.0432 -0.00886331 11.3683 0.00285688V0.00363823ZM11.4379 1.77026C12.014 1.76636 12.364 1.79058 12.364 1.79058C17.1504 1.80308 19.4349 3.22747 19.9738 3.70722C21.7313 5.19647 22.6369 8.76566 21.9739 14.0116C21.3441 19.0982 17.5826 19.4201 16.8864 19.6397C16.5901 19.7334 13.8528 20.4007 10.4043 20.1811C10.4043 20.1811 7.83605 23.2456 7.03319 24.0347C6.90597 24.173 6.7574 24.2137 6.66258 24.1933C6.52666 24.1605 6.48557 23.9941 6.49347 23.7659L6.51797 19.5787C1.48822 18.2035 1.78455 13.0146 1.83828 10.3041C1.89992 7.59364 2.41435 5.37618 3.9458 3.87443C6.00748 2.03123 9.71204 1.78276 11.4363 1.77026H11.4379ZM11.8172 4.47997C11.7758 4.47956 11.7347 4.48725 11.6963 4.50261C11.658 4.51796 11.623 4.54068 11.5936 4.56944C11.5641 4.5982 11.5407 4.63244 11.5247 4.67019C11.5087 4.70794 11.5004 4.74845 11.5003 4.78938C11.5003 4.96441 11.6441 5.1027 11.8172 5.1027C12.6007 5.08797 13.3794 5.22676 14.1084 5.51106C14.8374 5.79536 15.5022 6.21955 16.0646 6.75916C17.2128 7.86164 17.7723 9.34307 17.7936 11.28C17.7936 11.4511 17.9335 11.5933 18.1105 11.5933V11.5808C18.1939 11.5811 18.274 11.5487 18.3334 11.4907C18.3928 11.4327 18.4265 11.3539 18.4274 11.2714C18.4657 10.3597 18.3162 9.44981 17.9879 8.59702C17.6595 7.74422 17.1593 6.96634 16.5174 6.31067C15.2665 5.10192 13.6813 4.47919 11.8172 4.47919V4.47997ZM7.65193 5.19647C7.42826 5.16415 7.20014 5.20855 7.00553 5.32226H6.98894C6.53714 5.58412 6.13014 5.91509 5.78306 6.30285C5.49463 6.63258 5.33817 6.96622 5.29708 7.28735C5.27258 7.47878 5.28917 7.67021 5.34686 7.85304L5.36741 7.86555C5.69219 8.80941 6.11654 9.71734 6.63492 10.5721C7.30267 11.773 8.12445 12.8836 9.07986 13.8764L9.10831 13.9171L9.15335 13.9499L9.1818 13.9827L9.21499 14.0108C10.2227 14.9583 11.3487 15.7746 12.5655 16.44C13.9563 17.1886 14.8003 17.5425 15.3068 17.6894V17.6972C15.4554 17.7418 15.5905 17.7621 15.7264 17.7621C16.1581 17.7308 16.5668 17.5575 16.8872 17.2698C17.2776 16.9266 17.6086 16.5225 17.8671 16.0736V16.0658C18.1097 15.6142 18.0275 15.1868 17.6775 14.8977C16.9764 14.2917 16.2183 13.7535 15.4135 13.2904C14.8745 13.0013 14.3269 13.1764 14.1049 13.4694L13.6315 14.0593C13.3889 14.3523 12.948 14.3117 12.948 14.3117L12.9353 14.3195C9.64724 13.4889 8.7701 10.1971 8.7701 10.1971C8.7701 10.1971 8.729 9.74937 9.03324 9.52122L9.6259 9.04929C9.90959 8.82113 10.1071 8.28044 9.80291 7.74678C9.33779 6.94993 8.79467 6.20015 8.18138 5.50822C8.04731 5.3451 7.85921 5.23412 7.65035 5.1949L7.65193 5.19647ZM12.364 6.12471C11.9444 6.12471 11.9444 6.75135 12.368 6.75135C12.8897 6.75971 13.4047 6.86967 13.8835 7.07493C14.3623 7.28018 14.7954 7.57672 15.1582 7.94759C15.4892 8.30858 15.7435 8.73157 15.9061 9.19152C16.0687 9.65147 16.1363 10.139 16.1049 10.6253C16.1064 10.7076 16.1403 10.786 16.1996 10.8438C16.2588 10.9017 16.3386 10.9343 16.4218 10.9347L16.4344 10.9511C16.5183 10.9505 16.5985 10.9173 16.6578 10.8586C16.7171 10.8 16.7507 10.7207 16.7513 10.6378C16.7798 9.3962 16.3894 8.35467 15.6237 7.52019C14.854 6.68571 13.7801 6.21769 12.4091 6.12471H12.364V6.12471ZM12.8832 7.80929C12.4509 7.79679 12.4343 8.43593 12.8626 8.44843C13.9042 8.50156 14.4099 9.02194 14.4763 10.0924C14.4777 10.1736 14.5113 10.2511 14.5698 10.3082C14.6282 10.3653 14.707 10.3975 14.7892 10.3979H14.8018C14.8441 10.3961 14.8856 10.386 14.9238 10.3682C14.9621 10.3504 14.9964 10.3252 15.0247 10.2942C15.053 10.2631 15.0748 10.2268 15.0888 10.1873C15.1028 10.1478 15.1086 10.106 15.1061 10.0643C15.0318 8.66877 14.2621 7.88274 12.8958 7.81007H12.8832V7.80929Z" fill="black"/>
</svg>
