<svg width="25" height="25" viewBox="0 0 25 25" fill="none" xmlns="http://www.w3.org/2000/svg">
<path d="M18.3451 14.8237C18.0287 14.6757 16.453 13.9724 16.1599 13.8772C15.8668 13.7767 15.652 13.7291 15.4402 14.0252C15.2254 14.3187 14.616 14.9718 14.4245 15.1701C14.2388 15.3658 14.0501 15.3896 13.7338 15.2441C11.8533 14.3875 10.62 13.7159 9.38082 11.7778C9.05289 11.2622 9.70874 11.2992 10.3211 10.1861C10.4255 9.99042 10.3733 9.82385 10.292 9.67578C10.2108 9.52771 9.57235 8.09464 9.30537 7.5103C9.04709 6.94183 8.78011 7.02115 8.58567 7.01058C8.39995 7 8.1881 7 7.97335 7C7.75861 7 7.41327 7.07403 7.12017 7.36224C6.82707 7.65572 6 8.36169 6 9.79476C6 11.2278 7.14629 12.616 7.30299 12.8116C7.4655 13.0073 9.55784 15.9475 12.7703 17.214C14.8017 18.0125 15.5969 18.0812 16.6126 17.9437C17.2307 17.8591 18.5047 17.2404 18.7688 16.5556C19.0328 15.8734 19.0328 15.2891 18.9545 15.1675C18.8761 15.0379 18.6614 14.9639 18.3451 14.8237Z" fill="black"/>
<path d="M24.0289 7.65625C23.3983 6.15792 22.4943 4.81306 21.342 3.65792C20.1896 2.50558 18.8448 1.59877 17.3437 0.970982C15.8091 0.326451 14.1797 0 12.5 0H12.4442C10.7534 0.00837054 9.11556 0.343192 7.5754 1.00167C6.08825 1.63783 4.75456 2.54185 3.61339 3.6942C2.47223 4.84654 1.57659 6.18583 0.957178 7.67857C0.315445 9.22433 -0.00821214 10.8677 0.000158292 12.5586C0.00852872 14.495 0.471693 16.4174 1.33943 18.1362V22.3772C1.33943 23.0859 1.9142 23.6607 2.62289 23.6607H6.8667C8.58543 24.5285 10.5078 24.9916 12.4442 25H12.5028C14.1741 25 15.7952 24.6763 17.3214 24.043C18.8141 23.4208 20.1562 22.5279 21.3057 21.3867C22.458 20.2455 23.3648 18.9118 23.9982 17.4247C24.6567 15.8845 24.9915 14.2467 24.9998 12.5558C25.0082 10.8566 24.679 9.20759 24.0289 7.65625V7.65625ZM19.813 19.8772C17.8571 21.8136 15.2622 22.8795 12.5 22.8795H12.4526C10.7701 22.8711 9.09882 22.4526 7.62283 21.6657L7.38846 21.5402H3.45994V17.6116L3.33438 17.3772C2.54756 15.9012 2.12904 14.2299 2.12067 12.5474C2.10951 9.76563 3.17255 7.15402 5.12286 5.18694C7.07038 3.21987 9.67359 2.1317 12.4554 2.12054H12.5028C13.8979 2.12054 15.2511 2.39118 16.5262 2.9269C17.7706 3.44866 18.8866 4.19922 19.8464 5.15904C20.8035 6.11607 21.5568 7.23493 22.0786 8.47935C22.6199 9.76841 22.8905 11.1356 22.8849 12.5474C22.8682 15.3265 21.7772 17.9297 19.813 19.8772V19.8772Z" fill="black"/>
</svg>
